<svg xmlns="http://www.w3.org/2000/svg" fill="currentColor" viewBox="0 0 512 512">
  <path
    d="M502.3 159.7c6 4 9.7 11.1 9.7 18.3v156c0 7.1-3.7 14.3-9.7 18.3l-234 156c-8.1 5-16.6 4.9-24.6 0l-234-156c-6-4-9.7-11.1-9.7-18.3V178c0-7.1 3.7-14.3 9.7-18.3l234-156c8.1-5 16.6-4.9 24.6 0zM278 63.1v102.6l95.4 63.7 76.9-51.4zm-44 0L61.7 178l76.9 51.4 95.4-63.7V63.1zm-190 156v73.7l55.1-36.9zm190 229.7V346.2l-95.4-63.7-76.9 51.4zM256 308l77.7-52-77.7-52-77.7 52zm22 140.8 172.3-114.9-76.9-51.4-95.4 63.7v102.6zm190-156v-73.7L412.9 256z" />
</svg>