<svg xmlns="http://www.w3.org/2000/svg" width="682.667" height="682.667" preserveAspectRatio="xMidYMid meet" version="1.0" viewBox="0 0 512 512"><metadata>Created by potrace 1.11, written by Peter Selinger 2001-2013</metadata><g fill="#000" stroke="none"><path d="M2866 3193 c-203 -209 -341 -393 -541 -718 -57 -93 -198 -309 -212 -325 -9 -9 -22 26 -28 75 -4 27 -8 61 -10 75 -2 14 -7 70 -10 125 -21 363 -72 541 -187 656 -30 30 -54 64 -56 78 -7 55 -65 113 -130 130 -21 6 -34 1 -62 -23 -64 -57 -86 -84 -97 -119 -12 -41 -9 -201 7 -349 6 -57 12 -204 12 -327 0 -191 2 -232 18 -270 10 -27 20 -89 24 -148 5 -92 21 -182 84 -478 12 -56 30 -105 46 -129 14 -21 27 -48 27 -60 1 -12 3 -39 4 -61 1 -23 8 -41 16 -44 8 -2 39 -31 69 -63 66 -72 98 -90 159 -91 133 -1 245 118 254 271 4 67 7 74 45 114 22 24 50 55 61 70 33 42 81 138 81 162 0 12 21 44 50 74 27 28 63 80 80 114 57 114 131 230 244 378 48 64 213 266 249 305 78 85 167 207 167 230 0 14 11 47 23 73 34 67 29 133 -20 252 l-38 95 -50 6 c-28 3 -67 13 -87 22 -21 10 -47 17 -58 17 -13 0 -62 -43 -134 -117z" transform="translate(0.000000,512.000000) scale(0.100000,-0.100000)"/><path d="M3070 1649 c-30 -44 -76 -96 -102 -115 -27 -20 -48 -40 -48 -45 0 -5 8 -21 17 -36 17 -25 17 -27 -5 -41 l-22 -14 30 -35 c17 -18 30 -39 30 -47 0 -36 34 -118 58 -140 102 -92 120 -104 159 -100 108 10 153 24 153 49 0 7 27 28 59 45 62 33 92 74 90 121 -1 13 10 57 25 97 32 87 33 90 17 165 -15 70 -24 75 -177 111 -159 38 -194 48 -200 57 -12 21 -32 4 -84 -72z" transform="translate(0.000000,512.000000) scale(0.100000,-0.100000)"/></g></svg>